<?xml version="1.0"?>
<svg xmlns="http://www.w3.org/2000/svg" xmlns:xlink="http://www.w3.org/1999/xlink" version="1.1" id="Layer_1" x="0px" y="0px" viewBox="0 0 512.011 512.011" style="enable-background:new 0 0 512.011 512.011;" xml:space="preserve" width="512px" height="512px"><g><g>
	<g>
		<g>
			<path d="M9.881,188.672l234.667,149.333c3.499,2.219,7.488,3.328,11.456,3.328c3.989,0,7.957-1.109,11.456-3.328l234.667-149.333     c6.144-3.925,9.877-10.709,9.877-18.005c0-7.296-3.733-14.08-9.877-17.984L267.459,3.328c-6.997-4.437-15.915-4.437-22.912,0     L9.881,152.683c-6.144,3.904-9.877,10.688-9.877,17.984C0.003,177.963,3.737,184.747,9.881,188.672z" data-original="#000000" class="active-path" data-old_color="#000000" fill="#4A32D4"/>
			<path d="M502.13,323.339l-66.069-42.048l-145.685,92.715c-10.347,6.549-22.208,10.005-34.368,10.005s-24.021-3.456-34.304-9.984     L75.954,281.291L9.885,323.339c-6.144,3.925-9.877,10.709-9.877,18.005c0,7.296,3.733,14.08,9.877,17.984l234.667,149.355     c3.499,2.219,7.467,3.328,11.456,3.328c3.968,0,7.957-1.109,11.456-3.328L502.13,359.328c6.144-3.904,9.877-10.688,9.877-17.984     C512.008,334.048,508.274,327.264,502.13,323.339z" data-original="#000000" class="active-path" data-old_color="#000000" fill="#4A32D4"/>
		</g>
	</g>
</g></g> </svg>
